<?xml version="1.0" encoding="UTF-8" standalone="no"?>
<!DOCTYPE svg PUBLIC "-//W3C//DTD SVG 1.1//EN"
 "http://www.w3.org/Graphics/SVG/1.1/DTD/svg11.dtd">
<!-- Generated by graphviz version 2.50.0 (0)
 -->
<!-- Title: snakemake_dag Pages: 1 -->
<svg width="87pt" height="332pt"
 viewBox="0.00 0.00 87.00 332.00" xmlns="http://www.w3.org/2000/svg" xmlns:xlink="http://www.w3.org/1999/xlink">
<g id="graph0" class="graph" transform="scale(1 1) rotate(0) translate(4 328)">
<title>snakemake_dag</title>
<polygon fill="white" stroke="transparent" points="-4,4 -4,-328 83,-328 83,4 -4,4"/>
<!-- 0 -->
<g id="node1" class="node">
<title>0</title>
<path fill="none" stroke="#59d856" stroke-width="2" stroke-dasharray="5,2" d="M58.5,-36C58.5,-36 20.5,-36 20.5,-36 14.5,-36 8.5,-30 8.5,-24 8.5,-24 8.5,-12 8.5,-12 8.5,-6 14.5,0 20.5,0 20.5,0 58.5,0 58.5,0 64.5,0 70.5,-6 70.5,-12 70.5,-12 70.5,-24 70.5,-24 70.5,-30 64.5,-36 58.5,-36"/>
<text text-anchor="middle" x="39.5" y="-15.5" font-family="sans" font-size="10.00">plot_quals</text>
</g>
<!-- 1 -->
<g id="node2" class="node">
<title>1</title>
<path fill="none" stroke="#d8ac56" stroke-width="2" stroke-dasharray="5,2" d="M57.5,-108C57.5,-108 21.5,-108 21.5,-108 15.5,-108 9.5,-102 9.5,-96 9.5,-96 9.5,-84 9.5,-84 9.5,-78 15.5,-72 21.5,-72 21.5,-72 57.5,-72 57.5,-72 63.5,-72 69.5,-78 69.5,-84 69.5,-84 69.5,-96 69.5,-96 69.5,-102 63.5,-108 57.5,-108"/>
<text text-anchor="middle" x="39.5" y="-87.5" font-family="sans" font-size="10.00">freebayes</text>
</g>
<!-- 1&#45;&gt;0 -->
<g id="edge1" class="edge">
<title>1&#45;&gt;0</title>
<path fill="none" stroke="grey" stroke-width="2" d="M39.5,-71.7C39.5,-63.98 39.5,-54.71 39.5,-46.11"/>
<polygon fill="grey" stroke="grey" stroke-width="2" points="43,-46.1 39.5,-36.1 36,-46.1 43,-46.1"/>
</g>
<!-- 2 -->
<g id="node3" class="node">
<title>2</title>
<path fill="none" stroke="#56d8a9" stroke-width="2" stroke-dasharray="5,2" d="M67,-180C67,-180 12,-180 12,-180 6,-180 0,-174 0,-168 0,-168 0,-156 0,-156 0,-150 6,-144 12,-144 12,-144 67,-144 67,-144 73,-144 79,-150 79,-156 79,-156 79,-168 79,-168 79,-174 73,-180 67,-180"/>
<text text-anchor="middle" x="39.5" y="-159.5" font-family="sans" font-size="10.00">samtools_sort</text>
</g>
<!-- 2&#45;&gt;1 -->
<g id="edge2" class="edge">
<title>2&#45;&gt;1</title>
<path fill="none" stroke="grey" stroke-width="2" d="M39.5,-143.7C39.5,-135.98 39.5,-126.71 39.5,-118.11"/>
<polygon fill="grey" stroke="grey" stroke-width="2" points="43,-118.1 39.5,-108.1 36,-118.1 43,-118.1"/>
</g>
<!-- 3 -->
<g id="node4" class="node">
<title>3</title>
<path fill="none" stroke="#56a9d8" stroke-width="2" stroke-dasharray="5,2" d="M64.5,-252C64.5,-252 14.5,-252 14.5,-252 8.5,-252 2.5,-246 2.5,-240 2.5,-240 2.5,-228 2.5,-228 2.5,-222 8.5,-216 14.5,-216 14.5,-216 64.5,-216 64.5,-216 70.5,-216 76.5,-222 76.5,-228 76.5,-228 76.5,-240 76.5,-240 76.5,-246 70.5,-252 64.5,-252"/>
<text text-anchor="middle" x="39.5" y="-231.5" font-family="sans" font-size="10.00">sam_to_bam</text>
</g>
<!-- 3&#45;&gt;2 -->
<g id="edge3" class="edge">
<title>3&#45;&gt;2</title>
<path fill="none" stroke="grey" stroke-width="2" d="M39.5,-215.7C39.5,-207.98 39.5,-198.71 39.5,-190.11"/>
<polygon fill="grey" stroke="grey" stroke-width="2" points="43,-190.1 39.5,-180.1 36,-190.1 43,-190.1"/>
</g>
<!-- 4 -->
<g id="node5" class="node">
<title>4</title>
<path fill="none" stroke="#d85656" stroke-width="2" stroke-dasharray="5,2" d="M57.5,-324C57.5,-324 21.5,-324 21.5,-324 15.5,-324 9.5,-318 9.5,-312 9.5,-312 9.5,-300 9.5,-300 9.5,-294 15.5,-288 21.5,-288 21.5,-288 57.5,-288 57.5,-288 63.5,-288 69.5,-294 69.5,-300 69.5,-300 69.5,-312 69.5,-312 69.5,-318 63.5,-324 57.5,-324"/>
<text text-anchor="middle" x="39.5" y="-303.5" font-family="sans" font-size="10.00">bwa_map</text>
</g>
<!-- 4&#45;&gt;3 -->
<g id="edge4" class="edge">
<title>4&#45;&gt;3</title>
<path fill="none" stroke="grey" stroke-width="2" d="M39.5,-287.7C39.5,-279.98 39.5,-270.71 39.5,-262.11"/>
<polygon fill="grey" stroke="grey" stroke-width="2" points="43,-262.1 39.5,-252.1 36,-262.1 43,-262.1"/>
</g>
</g>
</svg>
